<svg width="446" height="71" viewBox="0 0 446 71" fill="none" xmlns="http://www.w3.org/2000/svg">
<path d="M1 38.3963L9.14 35.5831C17.28 32.7699 33.93 27.1435 50.21 32.7699C66.86 38.3963 83.14 55.2756 99.79 46.8359C116.07 38.3963 132.72 4.6378 149 7.451C165.28 10.2642 181.93 49.6491 198.21 63.7152C214.86 77.7812 231.14 66.5284 247.79 46.8359C264.07 27.1435 280.72 -0.988624 297 1.82459C313.28 4.63779 329.93 38.3963 346.21 41.2095C362.86 44.0227 379.14 15.8906 395.79 7.451C412.07 -0.988623 428.72 10.2642 436.86 15.8906L445 21.5171" stroke="black" stroke-width="2"/>
</svg>
